<svg width="75" height="46" viewBox="0 0 75 46" fill="none" xmlns="http://www.w3.org/2000/svg">
<path d="M31.7583 34.5H30.7896C30.7323 34.2214 30.632 33.9766 30.4888 33.7656C30.3481 33.5547 30.1763 33.3776 29.9731 33.2344C29.7726 33.0885 29.55 32.9792 29.3052 32.9062C29.0604 32.8333 28.8052 32.7969 28.5396 32.7969C28.0552 32.7969 27.6164 32.9193 27.2231 33.1641C26.8325 33.4089 26.5213 33.7695 26.2896 34.2461C26.0604 34.7227 25.9458 35.3073 25.9458 36C25.9458 36.6927 26.0604 37.2773 26.2896 37.7539C26.5213 38.2305 26.8325 38.5911 27.2231 38.8359C27.6164 39.0807 28.0552 39.2031 28.5396 39.2031C28.8052 39.2031 29.0604 39.1667 29.3052 39.0937C29.55 39.0208 29.7726 38.9128 29.9731 38.7695C30.1763 38.6237 30.3481 38.4453 30.4888 38.2344C30.632 38.0208 30.7323 37.776 30.7896 37.5H31.7583C31.6854 37.9089 31.5526 38.2747 31.3599 38.5977C31.1672 38.9206 30.9276 39.1953 30.6411 39.4219C30.3547 39.6458 30.033 39.8164 29.6763 39.9336C29.3221 40.0508 28.9432 40.1094 28.5396 40.1094C27.8573 40.1094 27.2505 39.9427 26.7192 39.6094C26.188 39.276 25.77 38.8021 25.4653 38.1875C25.1606 37.5729 25.0083 36.8437 25.0083 36C25.0083 35.1562 25.1606 34.4271 25.4653 33.8125C25.77 33.1979 26.188 32.724 26.7192 32.3906C27.2505 32.0573 27.8573 31.8906 28.5396 31.8906C28.9432 31.8906 29.3221 31.9492 29.6763 32.0664C30.033 32.1836 30.3547 32.3555 30.6411 32.582C30.9276 32.806 31.1672 33.0794 31.3599 33.4023C31.5526 33.7227 31.6854 34.0885 31.7583 34.5ZM34.1206 36.3906V40H33.1987V32H34.1206V34.9375H34.1987C34.3394 34.6276 34.5503 34.3815 34.8315 34.1992C35.1154 34.0143 35.493 33.9219 35.9644 33.9219C36.3732 33.9219 36.7313 34.0039 37.0386 34.168C37.3459 34.3294 37.5841 34.5781 37.7534 34.9141C37.9253 35.2474 38.0112 35.6719 38.0112 36.1875V40H37.0894V36.25C37.0894 35.7734 36.9657 35.4049 36.7183 35.1445C36.4735 34.8815 36.1336 34.75 35.6987 34.75C35.3966 34.75 35.1258 34.8138 34.8862 34.9414C34.6493 35.069 34.4618 35.2552 34.3237 35.5C34.1883 35.7448 34.1206 36.0417 34.1206 36.3906ZM41.4634 40.1406C41.0832 40.1406 40.7381 40.069 40.4282 39.9258C40.1183 39.7799 39.8722 39.5703 39.6899 39.2969C39.5076 39.0208 39.4165 38.6875 39.4165 38.2969C39.4165 37.9531 39.4842 37.6745 39.6196 37.4609C39.755 37.2448 39.936 37.0755 40.1626 36.9531C40.3892 36.8307 40.6392 36.7396 40.9126 36.6797C41.1886 36.6172 41.466 36.5677 41.7446 36.5313C42.1092 36.4844 42.4048 36.4492 42.6313 36.4258C42.8605 36.3997 43.0272 36.3568 43.1313 36.2969C43.2381 36.237 43.2915 36.1328 43.2915 35.9844V35.9531C43.2915 35.5677 43.186 35.2682 42.9751 35.0547C42.7668 34.8411 42.4504 34.7344 42.0259 34.7344C41.5858 34.7344 41.2407 34.8307 40.9907 35.0234C40.7407 35.2161 40.5649 35.4219 40.4634 35.6406L39.5884 35.3281C39.7446 34.9635 39.953 34.6797 40.2134 34.4766C40.4764 34.2708 40.7629 34.1276 41.0728 34.0469C41.3853 33.9635 41.6925 33.9219 41.9946 33.9219C42.1873 33.9219 42.4087 33.9453 42.6587 33.9922C42.9113 34.0365 43.1548 34.1289 43.3892 34.2695C43.6261 34.4102 43.8228 34.6224 43.979 34.9062C44.1353 35.1901 44.2134 35.5703 44.2134 36.0469V40H43.2915V39.1875H43.2446C43.1821 39.3177 43.078 39.457 42.9321 39.6055C42.7863 39.7539 42.5923 39.8802 42.3501 39.9844C42.1079 40.0885 41.8123 40.1406 41.4634 40.1406ZM41.604 39.3125C41.9686 39.3125 42.2759 39.2409 42.5259 39.0977C42.7785 38.9544 42.9686 38.7695 43.0962 38.543C43.2264 38.3164 43.2915 38.0781 43.2915 37.8281V36.9844C43.2524 37.0312 43.1665 37.0742 43.0337 37.1133C42.9035 37.1497 42.7524 37.1823 42.5806 37.2109C42.4113 37.237 42.2459 37.2604 42.0845 37.2812C41.9256 37.2995 41.7967 37.3151 41.6978 37.3281C41.4582 37.3594 41.2342 37.4102 41.0259 37.4805C40.8201 37.5482 40.6535 37.651 40.5259 37.7891C40.4009 37.9245 40.3384 38.1094 40.3384 38.3437C40.3384 38.6641 40.4569 38.9062 40.6938 39.0703C40.9334 39.2318 41.2368 39.3125 41.604 39.3125ZM48.5054 34V34.7812H45.396V34H48.5054ZM46.3022 32.5625H47.2241V38.2812C47.2241 38.5417 47.2619 38.737 47.3374 38.8672C47.4155 38.9948 47.5145 39.0807 47.6343 39.125C47.7567 39.1667 47.8856 39.1875 48.021 39.1875C48.1226 39.1875 48.2059 39.1823 48.271 39.1719C48.3361 39.1589 48.3882 39.1484 48.4272 39.1406L48.6147 39.9687C48.5522 39.9922 48.465 40.0156 48.353 40.0391C48.241 40.0651 48.0991 40.0781 47.9272 40.0781C47.6668 40.0781 47.4116 40.0221 47.1616 39.9102C46.9142 39.7982 46.7085 39.6276 46.5444 39.3984C46.383 39.1693 46.3022 38.8802 46.3022 38.5312V32.5625Z" fill="#141414"/>
<path d="M27.8496 21V22.5L29.0496 21.6L33.8496 18L33.8507 17.9992C34.0661 17.837 34.3286 17.7495 34.5982 17.75H34.5996H44.5996C46.1184 17.75 47.3496 16.5188 47.3496 15V5C47.3496 3.48122 46.1184 2.25 44.5996 2.25H30.5996C29.0808 2.25 27.8496 3.48122 27.8496 5V21Z" stroke="black" stroke-width="1.5"/>
</svg>
