<svg width="54" height="54" viewBox="0 0 54 54" fill="none" xmlns="http://www.w3.org/2000/svg">
<g filter="url(#filter0_dd_2890_11600)">
<g clip-path="url(#clip0_2890_11600)">
<rect x="3" y="2" width="48" height="48" rx="8" fill="white"/>
<g opacity="0.4" filter="url(#filter1_f_2890_11600)">
<path d="M49.9255 5.41582C49.9255 12.3194 36.3252 19 29.4216 19C22.5181 19 5.41016 8.26963 5.41016 1.36607C5.41016 -5.53749 22.5181 -6 29.4216 -6C36.3252 -6 49.9255 -1.48774 49.9255 5.41582Z" fill="url(#paint0_linear_2890_11600)"/>
</g>
<rect opacity="0.2" x="-0.5" y="0.5" width="30.3846" height="47" rx="6.88462" transform="matrix(-1 0 0 1 17.3828 -27)" stroke="url(#paint1_radial_2890_11600)"/>
<rect opacity="0.2" x="36.5781" y="-26.5" width="30.3846" height="47" rx="6.88462" stroke="url(#paint2_radial_2890_11600)"/>
<line opacity="0.2" x1="-8" y1="42.5385" x2="62" y2="42.5385" stroke="url(#paint3_radial_2890_11600)" stroke-width="0.923077"/>
<path d="M28.1663 37.6668H18.833C16.4997 37.6668 15.333 36.5002 15.333 34.1668V24.8335C15.333 22.5002 16.4997 21.3335 18.833 21.3335H24.6663V34.1668C24.6663 36.5002 25.833 37.6668 28.1663 37.6668Z" stroke="#141414" stroke-width="1.5" stroke-miterlimit="10" stroke-linecap="round" stroke-linejoin="round"/>
<path d="M24.7947 16.6665C24.7013 17.0165 24.6663 17.4015 24.6663 17.8332V21.3332H18.833V18.9998C18.833 17.7165 19.883 16.6665 21.1663 16.6665H24.7947Z" stroke="#141414" stroke-width="1.5" stroke-miterlimit="10" stroke-linecap="round" stroke-linejoin="round"/>
<path d="M29.333 21.3335V27.1668" stroke="#141414" stroke-width="1.5" stroke-miterlimit="10" stroke-linecap="round" stroke-linejoin="round"/>
<path d="M34 21.3335V27.1668" stroke="#141414" stroke-width="1.5" stroke-miterlimit="10" stroke-linecap="round" stroke-linejoin="round"/>
<path d="M32.833 31.8335H30.4997C29.858 31.8335 29.333 32.3585 29.333 33.0002V37.6668H33.9997V33.0002C33.9997 32.3585 33.4747 31.8335 32.833 31.8335Z" stroke="#141414" stroke-width="1.5" stroke-miterlimit="10" stroke-linecap="round" stroke-linejoin="round"/>
<path d="M20 27.1665V31.8332" stroke="#141414" stroke-width="1.5" stroke-miterlimit="10" stroke-linecap="round" stroke-linejoin="round"/>
<path d="M24.667 34.1668V17.8335C24.667 15.5002 25.8337 14.3335 28.167 14.3335H35.167C37.5003 14.3335 38.667 15.5002 38.667 17.8335V34.1668C38.667 36.5002 37.5003 37.6668 35.167 37.6668H28.167C25.8337 37.6668 24.667 36.5002 24.667 34.1668Z" stroke="#141414" stroke-width="1.5" stroke-miterlimit="10" stroke-linecap="round" stroke-linejoin="round"/>
</g>
</g>
<defs>
<filter id="filter0_dd_2890_11600" x="0" y="0" width="54" height="54" filterUnits="userSpaceOnUse" color-interpolation-filters="sRGB">
<feFlood flood-opacity="0" result="BackgroundImageFix"/>
<feColorMatrix in="SourceAlpha" type="matrix" values="0 0 0 0 0 0 0 0 0 0 0 0 0 0 0 0 0 0 127 0" result="hardAlpha"/>
<feOffset dy="1"/>
<feGaussianBlur stdDeviation="1"/>
<feColorMatrix type="matrix" values="0 0 0 0 0.0627451 0 0 0 0 0.0941176 0 0 0 0 0.156863 0 0 0 0.06 0"/>
<feBlend mode="normal" in2="BackgroundImageFix" result="effect1_dropShadow_2890_11600"/>
<feColorMatrix in="SourceAlpha" type="matrix" values="0 0 0 0 0 0 0 0 0 0 0 0 0 0 0 0 0 0 127 0" result="hardAlpha"/>
<feOffset dy="1"/>
<feGaussianBlur stdDeviation="1.5"/>
<feColorMatrix type="matrix" values="0 0 0 0 0.0627451 0 0 0 0 0.0941176 0 0 0 0 0.156863 0 0 0 0.1 0"/>
<feBlend mode="normal" in2="effect1_dropShadow_2890_11600" result="effect2_dropShadow_2890_11600"/>
<feBlend mode="normal" in="SourceGraphic" in2="effect2_dropShadow_2890_11600" result="shape"/>
</filter>
<filter id="filter1_f_2890_11600" x="-16.7199" y="-28.1301" width="88.7758" height="69.2602" filterUnits="userSpaceOnUse" color-interpolation-filters="sRGB">
<feFlood flood-opacity="0" result="BackgroundImageFix"/>
<feBlend mode="normal" in="SourceGraphic" in2="BackgroundImageFix" result="shape"/>
<feGaussianBlur stdDeviation="11.0651" result="effect1_foregroundBlur_2890_11600"/>
</filter>
<linearGradient id="paint0_linear_2890_11600" x1="27.6678" y1="-6" x2="27.6678" y2="19" gradientUnits="userSpaceOnUse">
<stop stop-color="#D09125"/>
<stop offset="1" stop-color="#FFCF7D"/>
</linearGradient>
<radialGradient id="paint1_radial_2890_11600" cx="0" cy="0" r="1" gradientUnits="userSpaceOnUse" gradientTransform="translate(25.8848 -9.49999) rotate(-158.629) scale(12.3491 674.035)">
<stop stop-color="#8E8E8E"/>
<stop offset="1" stop-color="#282828" stop-opacity="0"/>
</radialGradient>
<radialGradient id="paint2_radial_2890_11600" cx="0" cy="0" r="1" gradientUnits="userSpaceOnUse" gradientTransform="translate(61.9629 -36.5) rotate(-158.629) scale(12.3491 674.035)">
<stop stop-color="#8E8E8E"/>
<stop offset="1" stop-color="#282828" stop-opacity="0"/>
</radialGradient>
<radialGradient id="paint3_radial_2890_11600" cx="0" cy="0" r="1" gradientUnits="userSpaceOnUse" gradientTransform="translate(30.0882 42.58) rotate(-179.885) scale(29.853 15.9245)">
<stop stop-color="#8E8E8E"/>
<stop offset="1" stop-color="#282828" stop-opacity="0"/>
</radialGradient>
<clipPath id="clip0_2890_11600">
<rect x="3" y="2" width="48" height="48" rx="8" fill="white"/>
</clipPath>
</defs>
</svg>
