<svg width="182" height="64" viewBox="0 0 182 64" fill="none" xmlns="http://www.w3.org/2000/svg">
<g filter="url(#filter0_dd_2856_24816)">
<rect x="8.5" y="4" width="165" height="48" rx="24" fill="white"/>
<path d="M41.4432 26.0795C41.3485 25.7727 41.2178 25.4981 41.0511 25.2557C40.8883 25.0095 40.6913 24.7992 40.4602 24.625C40.233 24.4508 39.9716 24.3201 39.6761 24.233C39.3807 24.142 39.0587 24.0966 38.7102 24.0966C38.0852 24.0966 37.5284 24.2538 37.0398 24.5682C36.5511 24.8826 36.1667 25.3447 35.8864 25.9545C35.6098 26.5606 35.4716 27.2992 35.4716 28.1705C35.4716 29.0492 35.6098 29.7936 35.8864 30.4034C36.1629 31.0133 36.5473 31.4773 37.0398 31.7955C37.5322 32.1098 38.1042 32.267 38.7557 32.267C39.3466 32.267 39.858 32.1534 40.2898 31.9261C40.7254 31.6989 41.0606 31.3769 41.2955 30.9602C41.5303 30.5398 41.6477 30.0473 41.6477 29.483L42.125 29.5568H38.9659V27.9091H43.6875V29.3068C43.6875 30.303 43.4754 31.1648 43.0511 31.892C42.6269 32.6193 42.0436 33.1799 41.3011 33.5739C40.5587 33.964 39.7064 34.1591 38.7443 34.1591C37.6723 34.1591 36.7311 33.9186 35.9205 33.4375C35.1136 32.9527 34.483 32.2652 34.0284 31.375C33.5777 30.4811 33.3523 29.4205 33.3523 28.1932C33.3523 27.2538 33.4848 26.4148 33.75 25.6761C34.0189 24.9375 34.3939 24.3106 34.875 23.7955C35.3561 23.2765 35.9205 22.8826 36.5682 22.6136C37.2159 22.3409 37.9205 22.2045 38.6818 22.2045C39.3258 22.2045 39.9261 22.2992 40.483 22.4886C41.0398 22.6742 41.5341 22.9394 41.9659 23.2841C42.4015 23.6288 42.7595 24.0379 43.0398 24.5114C43.3201 24.9848 43.5038 25.5076 43.5909 26.0795H41.4432ZM49.4418 34.1705C48.5895 34.1705 47.8509 33.983 47.2259 33.608C46.6009 33.233 46.116 32.7083 45.7713 32.0341C45.4304 31.3598 45.2599 30.572 45.2599 29.6705C45.2599 28.7689 45.4304 27.9792 45.7713 27.3011C46.116 26.6231 46.6009 26.0966 47.2259 25.7216C47.8509 25.3466 48.5895 25.1591 49.4418 25.1591C50.294 25.1591 51.0327 25.3466 51.6577 25.7216C52.2827 26.0966 52.7656 26.6231 53.1065 27.3011C53.4512 27.9792 53.6236 28.7689 53.6236 29.6705C53.6236 30.572 53.4512 31.3598 53.1065 32.0341C52.7656 32.7083 52.2827 33.233 51.6577 33.608C51.0327 33.983 50.294 34.1705 49.4418 34.1705ZM49.4531 32.5227C49.9152 32.5227 50.3016 32.3958 50.6122 32.142C50.9228 31.8845 51.1539 31.5398 51.3054 31.108C51.4607 30.6761 51.5384 30.1951 51.5384 29.6648C51.5384 29.1307 51.4607 28.6477 51.3054 28.2159C51.1539 27.7803 50.9228 27.4337 50.6122 27.1761C50.3016 26.9186 49.9152 26.7898 49.4531 26.7898C48.9796 26.7898 48.5857 26.9186 48.2713 27.1761C47.9607 27.4337 47.7277 27.7803 47.5724 28.2159C47.4209 28.6477 47.3452 29.1307 47.3452 29.6648C47.3452 30.1951 47.4209 30.6761 47.5724 31.108C47.7277 31.5398 47.9607 31.8845 48.2713 32.142C48.5857 32.3958 48.9796 32.5227 49.4531 32.5227ZM63.696 25.2727V26.8636H58.679V25.2727H63.696ZM59.9176 23.1818H61.9744V31.375C61.9744 31.6515 62.0161 31.8636 62.0994 32.0114C62.1866 32.1553 62.3002 32.2538 62.4403 32.3068C62.5805 32.3598 62.7358 32.3864 62.9062 32.3864C63.035 32.3864 63.1525 32.3769 63.2585 32.358C63.3684 32.339 63.4517 32.322 63.5085 32.3068L63.8551 33.9148C63.7453 33.9527 63.5881 33.9943 63.3835 34.0398C63.1828 34.0852 62.9366 34.1117 62.6449 34.1193C62.1297 34.1345 61.6657 34.0568 61.2528 33.8864C60.84 33.7121 60.5123 33.4432 60.2699 33.0795C60.0313 32.7159 59.9138 32.2614 59.9176 31.7159V23.1818ZM69.1293 34.1705C68.277 34.1705 67.5384 33.983 66.9134 33.608C66.2884 33.233 65.8035 32.7083 65.4588 32.0341C65.1179 31.3598 64.9474 30.572 64.9474 29.6705C64.9474 28.7689 65.1179 27.9792 65.4588 27.3011C65.8035 26.6231 66.2884 26.0966 66.9134 25.7216C67.5384 25.3466 68.277 25.1591 69.1293 25.1591C69.9815 25.1591 70.7202 25.3466 71.3452 25.7216C71.9702 26.0966 72.4531 26.6231 72.794 27.3011C73.1387 27.9792 73.3111 28.7689 73.3111 29.6705C73.3111 30.572 73.1387 31.3598 72.794 32.0341C72.4531 32.7083 71.9702 33.233 71.3452 33.608C70.7202 33.983 69.9815 34.1705 69.1293 34.1705ZM69.1406 32.5227C69.6027 32.5227 69.9891 32.3958 70.2997 32.142C70.6103 31.8845 70.8414 31.5398 70.9929 31.108C71.1482 30.6761 71.2259 30.1951 71.2259 29.6648C71.2259 29.1307 71.1482 28.6477 70.9929 28.2159C70.8414 27.7803 70.6103 27.4337 70.2997 27.1761C69.9891 26.9186 69.6027 26.7898 69.1406 26.7898C68.6671 26.7898 68.2732 26.9186 67.9588 27.1761C67.6482 27.4337 67.4152 27.7803 67.2599 28.2159C67.1084 28.6477 67.0327 29.1307 67.0327 29.6648C67.0327 30.1951 67.1084 30.6761 67.2599 31.108C67.4152 31.5398 67.6482 31.8845 67.9588 32.142C68.2732 32.3958 68.6671 32.5227 69.1406 32.5227ZM89.0767 26.2898H86.9517C86.8911 25.9413 86.7794 25.6326 86.6165 25.3636C86.4536 25.0909 86.2509 24.8598 86.0085 24.6705C85.7661 24.4811 85.4896 24.339 85.179 24.2443C84.8722 24.1458 84.5407 24.0966 84.1847 24.0966C83.5521 24.0966 82.9915 24.2557 82.5028 24.5739C82.0142 24.8883 81.6316 25.3504 81.3551 25.9602C81.0786 26.5663 80.9403 27.3068 80.9403 28.1818C80.9403 29.072 81.0786 29.822 81.3551 30.4318C81.6354 31.0379 82.018 31.4962 82.5028 31.8068C82.9915 32.1136 83.5502 32.267 84.179 32.267C84.5275 32.267 84.8532 32.2216 85.1562 32.1307C85.4631 32.036 85.7377 31.8977 85.9801 31.7159C86.2263 31.5341 86.4328 31.3106 86.5994 31.0455C86.7699 30.7803 86.8873 30.4773 86.9517 30.1364L89.0767 30.1477C88.9972 30.7008 88.8248 31.2197 88.5597 31.7045C88.2983 32.1894 87.9555 32.6174 87.5312 32.9886C87.107 33.3561 86.6108 33.6439 86.0426 33.8523C85.4744 34.0568 84.8438 34.1591 84.1506 34.1591C83.1278 34.1591 82.215 33.9223 81.4119 33.4489C80.6089 32.9754 79.9763 32.2917 79.5142 31.3977C79.0521 30.5038 78.821 29.4318 78.821 28.1818C78.821 26.928 79.054 25.8561 79.5199 24.9659C79.9858 24.072 80.6203 23.3883 81.4233 22.9148C82.2263 22.4413 83.1354 22.2045 84.1506 22.2045C84.7983 22.2045 85.4006 22.2955 85.9574 22.4773C86.5142 22.6591 87.0104 22.9261 87.446 23.2784C87.8816 23.6269 88.2396 24.0549 88.5199 24.5625C88.804 25.0663 88.9896 25.642 89.0767 26.2898ZM94.723 34.1705C93.8707 34.1705 93.1321 33.983 92.5071 33.608C91.8821 33.233 91.3973 32.7083 91.0526 32.0341C90.7116 31.3598 90.5412 30.572 90.5412 29.6705C90.5412 28.7689 90.7116 27.9792 91.0526 27.3011C91.3973 26.6231 91.8821 26.0966 92.5071 25.7216C93.1321 25.3466 93.8707 25.1591 94.723 25.1591C95.5753 25.1591 96.3139 25.3466 96.9389 25.7216C97.5639 26.0966 98.0469 26.6231 98.3878 27.3011C98.7325 27.9792 98.9048 28.7689 98.9048 29.6705C98.9048 30.572 98.7325 31.3598 98.3878 32.0341C98.0469 32.7083 97.5639 33.233 96.9389 33.608C96.3139 33.983 95.5753 34.1705 94.723 34.1705ZM94.7344 32.5227C95.1965 32.5227 95.5829 32.3958 95.8935 32.142C96.2041 31.8845 96.4351 31.5398 96.5866 31.108C96.742 30.6761 96.8196 30.1951 96.8196 29.6648C96.8196 29.1307 96.742 28.6477 96.5866 28.2159C96.4351 27.7803 96.2041 27.4337 95.8935 27.1761C95.5829 26.9186 95.1965 26.7898 94.7344 26.7898C94.2609 26.7898 93.867 26.9186 93.5526 27.1761C93.242 27.4337 93.009 27.7803 92.8537 28.2159C92.7022 28.6477 92.6264 29.1307 92.6264 29.6648C92.6264 30.1951 92.7022 30.6761 92.8537 31.108C93.009 31.5398 93.242 31.8845 93.5526 32.142C93.867 32.3958 94.2609 32.5227 94.7344 32.5227ZM100.651 34V25.2727H102.616V26.7557H102.719C102.901 26.2557 103.202 25.8655 103.622 25.5852C104.043 25.3011 104.545 25.1591 105.128 25.1591C105.719 25.1591 106.217 25.303 106.622 25.5909C107.031 25.875 107.319 26.2633 107.486 26.7557H107.577C107.77 26.2708 108.096 25.8845 108.554 25.5966C109.016 25.3049 109.563 25.1591 110.196 25.1591C110.999 25.1591 111.654 25.4129 112.162 25.9205C112.67 26.428 112.923 27.1686 112.923 28.142V34H110.861V28.4602C110.861 27.9186 110.717 27.5227 110.429 27.2727C110.141 27.0189 109.789 26.892 109.372 26.892C108.876 26.892 108.488 27.0473 108.207 27.358C107.931 27.6648 107.793 28.0644 107.793 28.5568V34H105.776V28.375C105.776 27.9242 105.639 27.5644 105.366 27.2955C105.098 27.0265 104.745 26.892 104.31 26.892C104.014 26.892 103.745 26.9678 103.503 27.1193C103.26 27.267 103.067 27.4773 102.923 27.75C102.779 28.0189 102.707 28.3333 102.707 28.6932V34H100.651ZM115.01 37.2727V25.2727H117.033V26.7159H117.152C117.258 26.5038 117.408 26.2784 117.601 26.0398C117.794 25.7973 118.055 25.5909 118.385 25.4205C118.714 25.2462 119.135 25.1591 119.646 25.1591C120.321 25.1591 120.929 25.3314 121.47 25.6761C122.016 26.017 122.447 26.5227 122.766 27.1932C123.088 27.8598 123.249 28.678 123.249 29.6477C123.249 30.6061 123.091 31.4205 122.777 32.0909C122.463 32.7614 122.035 33.2727 121.493 33.625C120.951 33.9773 120.338 34.1534 119.652 34.1534C119.152 34.1534 118.737 34.0701 118.408 33.9034C118.078 33.7367 117.813 33.536 117.612 33.3011C117.415 33.0625 117.262 32.8371 117.152 32.625H117.067V37.2727H115.01ZM117.027 29.6364C117.027 30.2008 117.107 30.6951 117.266 31.1193C117.429 31.5436 117.661 31.875 117.964 32.1136C118.271 32.3485 118.643 32.4659 119.078 32.4659C119.533 32.4659 119.913 32.3447 120.22 32.1023C120.527 31.8561 120.758 31.5208 120.913 31.0966C121.072 30.6686 121.152 30.1818 121.152 29.6364C121.152 29.0947 121.074 28.6136 120.919 28.1932C120.764 27.7727 120.533 27.4432 120.226 27.2045C119.919 26.9659 119.536 26.8466 119.078 26.8466C118.639 26.8466 118.266 26.9621 117.959 27.1932C117.652 27.4242 117.419 27.7481 117.26 28.1648C117.105 28.5814 117.027 29.072 117.027 29.6364ZM127.521 34.1761C126.968 34.1761 126.47 34.0777 126.027 33.8807C125.588 33.6799 125.239 33.3845 124.982 32.9943C124.728 32.6042 124.601 32.1231 124.601 31.5511C124.601 31.0587 124.692 30.6515 124.874 30.3295C125.055 30.0076 125.304 29.75 125.618 29.5568C125.932 29.3636 126.286 29.2178 126.68 29.1193C127.078 29.017 127.489 28.9432 127.913 28.8977C128.425 28.8447 128.839 28.7973 129.158 28.7557C129.476 28.7102 129.707 28.642 129.851 28.5511C129.999 28.4564 130.072 28.3106 130.072 28.1136V28.0795C130.072 27.6515 129.946 27.3201 129.692 27.0852C129.438 26.8504 129.072 26.733 128.595 26.733C128.091 26.733 127.692 26.8428 127.396 27.0625C127.105 27.2822 126.908 27.5417 126.805 27.8409L124.885 27.5682C125.036 27.0379 125.286 26.5947 125.635 26.2386C125.983 25.8788 126.41 25.6098 126.913 25.4318C127.417 25.25 127.974 25.1591 128.584 25.1591C129.004 25.1591 129.423 25.2083 129.839 25.3068C130.256 25.4053 130.637 25.5682 130.982 25.7955C131.326 26.0189 131.603 26.3239 131.811 26.7102C132.023 27.0966 132.129 27.5795 132.129 28.1591V34H130.152V32.8011H130.084C129.959 33.0436 129.783 33.2708 129.555 33.483C129.332 33.6913 129.05 33.8598 128.709 33.9886C128.372 34.1136 127.976 34.1761 127.521 34.1761ZM128.055 32.6648C128.468 32.6648 128.826 32.5833 129.129 32.4205C129.432 32.2538 129.665 32.0341 129.828 31.7614C129.995 31.4886 130.078 31.1913 130.078 30.8693V29.8409C130.014 29.8939 129.904 29.9432 129.749 29.9886C129.597 30.0341 129.427 30.0739 129.237 30.108C129.048 30.142 128.86 30.1723 128.675 30.1989C128.489 30.2254 128.328 30.2481 128.192 30.267C127.885 30.3087 127.61 30.3769 127.368 30.4716C127.125 30.5663 126.934 30.6989 126.794 30.8693C126.654 31.036 126.584 31.2519 126.584 31.517C126.584 31.8958 126.722 32.1818 126.999 32.375C127.275 32.5682 127.627 32.6648 128.055 32.6648ZM134.197 34V25.2727H136.192V26.7273H136.283C136.442 26.2235 136.714 25.8352 137.101 25.5625C137.491 25.286 137.936 25.1477 138.436 25.1477C138.55 25.1477 138.677 25.1534 138.817 25.1648C138.961 25.1723 139.08 25.1856 139.175 25.2045V27.0966C139.088 27.0663 138.949 27.0398 138.76 27.017C138.574 26.9905 138.394 26.9773 138.22 26.9773C137.845 26.9773 137.508 27.0587 137.209 27.2216C136.913 27.3807 136.68 27.6023 136.51 27.8864C136.339 28.1705 136.254 28.4981 136.254 28.8693V34H134.197ZM144.045 34.1705C143.17 34.1705 142.415 33.9886 141.778 33.625C141.146 33.2576 140.659 32.7386 140.318 32.0682C139.977 31.3939 139.807 30.6004 139.807 29.6875C139.807 28.7898 139.977 28.0019 140.318 27.3239C140.663 26.642 141.144 26.1117 141.761 25.733C142.379 25.3504 143.104 25.1591 143.938 25.1591C144.475 25.1591 144.983 25.2462 145.46 25.4205C145.941 25.5909 146.366 25.8561 146.733 26.2159C147.104 26.5758 147.396 27.0341 147.608 27.5909C147.82 28.1439 147.926 28.803 147.926 29.5682V30.1989H140.773V28.8125H145.955C145.951 28.4186 145.866 28.0682 145.699 27.7614C145.532 27.4508 145.299 27.2064 145 27.0284C144.705 26.8504 144.36 26.7614 143.966 26.7614C143.545 26.7614 143.176 26.8636 142.858 27.0682C142.54 27.2689 142.292 27.5341 142.114 27.8636C141.939 28.1894 141.85 28.5473 141.847 28.9375V30.1477C141.847 30.6553 141.939 31.0909 142.125 31.4545C142.311 31.8144 142.57 32.0909 142.903 32.2841C143.237 32.4735 143.627 32.5682 144.074 32.5682C144.373 32.5682 144.644 32.5265 144.886 32.4432C145.129 32.3561 145.339 32.2292 145.517 32.0625C145.695 31.8958 145.83 31.6894 145.92 31.4432L147.841 31.6591C147.72 32.1667 147.489 32.6098 147.148 32.9886C146.811 33.3636 146.379 33.6553 145.852 33.8636C145.326 34.0682 144.723 34.1705 144.045 34.1705Z" fill="#141414"/>
</g>
<defs>
<filter id="filter0_dd_2856_24816" x="0.5" y="0" width="181" height="64" filterUnits="userSpaceOnUse" color-interpolation-filters="sRGB">
<feFlood flood-opacity="0" result="BackgroundImageFix"/>
<feColorMatrix in="SourceAlpha" type="matrix" values="0 0 0 0 0 0 0 0 0 0 0 0 0 0 0 0 0 0 127 0" result="hardAlpha"/>
<feOffset dy="4"/>
<feGaussianBlur stdDeviation="4"/>
<feComposite in2="hardAlpha" operator="out"/>
<feColorMatrix type="matrix" values="0 0 0 0 0 0 0 0 0 0 0 0 0 0 0 0 0 0 0.13 0"/>
<feBlend mode="normal" in2="BackgroundImageFix" result="effect1_dropShadow_2856_24816"/>
<feColorMatrix in="SourceAlpha" type="matrix" values="0 0 0 0 0 0 0 0 0 0 0 0 0 0 0 0 0 0 127 0" result="hardAlpha"/>
<feMorphology radius="1" operator="dilate" in="SourceAlpha" result="effect2_dropShadow_2856_24816"/>
<feOffset/>
<feComposite in2="hardAlpha" operator="out"/>
<feColorMatrix type="matrix" values="0 0 0 0 0 0 0 0 0 0 0 0 0 0 0 0 0 0 0.04 0"/>
<feBlend mode="normal" in2="effect1_dropShadow_2856_24816" result="effect2_dropShadow_2856_24816"/>
<feBlend mode="normal" in="SourceGraphic" in2="effect2_dropShadow_2856_24816" result="shape"/>
</filter>
</defs>
</svg>
