<svg width="40" height="40" viewBox="0 0 40 40" fill="none" xmlns="http://www.w3.org/2000/svg">
<g filter="url(#filter0_d_701_8428)">
<rect x="3" y="2" width="34" height="34" rx="17" fill="white" shape-rendering="crispEdges"/>
<path d="M19.9994 26.5C19.4619 26.0233 18.8544 25.5275 18.2119 25H18.2035C15.941 23.15 13.3769 21.0566 12.2444 18.5483C11.8723 17.7497 11.6751 16.8809 11.666 16C11.6635 14.7912 12.1483 13.6324 13.0109 12.7856C13.8734 11.9388 15.0409 11.4753 16.2494 11.5C17.2332 11.5015 18.1959 11.7859 19.0227 12.3191C19.386 12.5549 19.7147 12.8402 19.9994 13.1666C20.2856 12.8415 20.6144 12.5564 20.9769 12.3191C21.8033 11.7858 22.7658 11.5014 23.7494 11.5C24.9579 11.4753 26.1253 11.9388 26.9879 12.7856C27.8504 13.6324 28.3352 14.7912 28.3327 16C28.3242 16.8823 28.127 17.7526 27.7544 18.5525C26.6219 21.0608 24.0585 23.1533 21.796 25L21.7877 25.0066C21.1444 25.5308 20.5377 26.0266 20.0002 26.5066L19.9994 26.5ZM16.2494 13.1666C15.4731 13.1569 14.7244 13.454 14.166 13.9933C13.628 14.5218 13.3273 15.2458 13.3326 16C13.3421 16.642 13.4876 17.2748 13.7594 17.8566C14.294 18.9389 15.0153 19.9183 15.8902 20.75C16.716 21.5833 17.666 22.39 18.4877 23.0683C18.7152 23.2558 18.9469 23.445 19.1785 23.6341L19.3244 23.7533C19.5469 23.935 19.7769 24.1233 19.9994 24.3083L20.0102 24.2983L20.0152 24.2941H20.0202L20.0277 24.2883H20.0319H20.036L20.051 24.2758L20.0852 24.2483L20.091 24.2433L20.1002 24.2366H20.1052L20.1127 24.23L20.666 23.7758L20.811 23.6566C21.0452 23.4658 21.2769 23.2766 21.5044 23.0891C22.326 22.4108 23.2769 21.605 24.1027 20.7675C24.9777 19.9363 25.6991 18.9571 26.2335 17.875C26.5103 17.2881 26.6578 16.6487 26.6661 16C26.6695 15.2482 26.369 14.5269 25.8327 14C25.2754 13.4582 24.5266 13.1587 23.7494 13.1666C22.801 13.1586 21.8943 13.5561 21.2577 14.2591L19.9994 15.7091L18.741 14.2591C18.1044 13.5561 17.1978 13.1586 16.2494 13.1666Z" fill="#1F1F1F"/>
</g>
<defs>
<filter id="filter0_d_701_8428" x="0" y="0" width="40" height="40" filterUnits="userSpaceOnUse" color-interpolation-filters="sRGB">
<feFlood flood-opacity="0" result="BackgroundImageFix"/>
<feColorMatrix in="SourceAlpha" type="matrix" values="0 0 0 0 0 0 0 0 0 0 0 0 0 0 0 0 0 0 127 0" result="hardAlpha"/>
<feOffset dy="1"/>
<feGaussianBlur stdDeviation="1.5"/>
<feComposite in2="hardAlpha" operator="out"/>
<feColorMatrix type="matrix" values="0 0 0 0 0 0 0 0 0 0 0 0 0 0 0 0 0 0 0.2 0"/>
<feBlend mode="normal" in2="BackgroundImageFix" result="effect1_dropShadow_701_8428"/>
<feBlend mode="normal" in="SourceGraphic" in2="effect1_dropShadow_701_8428" result="shape"/>
</filter>
</defs>
</svg>
