<svg width="192" height="48" viewBox="0 0 192 48" fill="none" xmlns="http://www.w3.org/2000/svg">
<path d="M171.899 0.628174L187.48 40.7953C188.119 42.413 188.842 43.4986 189.651 44.0521C190.46 44.563 191.205 44.8397 191.886 44.8822V46.1594C191.035 46.0743 189.992 46.0317 188.757 46.0317C187.523 45.9891 186.288 45.9678 185.053 45.9678C183.393 45.9678 181.839 45.9891 180.392 46.0317C178.944 46.0317 177.774 46.0743 176.88 46.1594V44.8822C179.051 44.7971 180.434 44.4352 181.03 43.7966C181.626 43.1155 181.499 41.6893 180.647 39.5181L168.769 7.78035L169.791 6.95019L158.68 35.8143C157.786 38.1132 157.36 39.9226 157.403 41.2423C157.445 42.5195 157.935 43.4348 158.871 43.9882C159.808 44.5417 161.17 44.8397 162.958 44.8822V46.1594C161.766 46.0743 160.51 46.0317 159.191 46.0317C157.914 45.9891 156.721 45.9678 155.615 45.9678C154.55 45.9678 153.635 45.9891 152.869 46.0317C152.145 46.0317 151.464 46.0743 150.825 46.1594V44.8822C151.677 44.6694 152.549 44.1798 153.443 43.4135C154.337 42.6046 155.146 41.2423 155.87 39.3265L170.877 0.628174C171.047 0.628174 171.217 0.628174 171.388 0.628174C171.558 0.628174 171.728 0.628174 171.899 0.628174ZM179.689 27.7681V29.0453H160.659L161.298 27.7681H179.689Z" fill="#151515"/>
<path d="M138.235 0.244995C140.364 0.244995 141.981 0.500431 143.088 1.0113C144.195 1.4796 145.174 2.01175 146.026 2.60777C146.537 2.90578 146.941 3.13992 147.239 3.31021C147.58 3.43793 147.899 3.50179 148.197 3.50179C148.878 3.50179 149.346 2.56519 149.602 0.692008H151.07C151.028 1.41574 150.964 2.28847 150.879 3.31021C150.836 4.28938 150.794 5.60913 150.751 7.26945C150.751 8.8872 150.751 11.0371 150.751 13.7192H149.282C149.155 11.6757 148.708 9.71737 147.941 7.84418C147.175 5.97099 146.047 4.43838 144.557 3.24635C143.109 2.05432 141.194 1.45831 138.81 1.45831C136.553 1.45831 134.68 2.13947 133.19 3.50179C131.743 4.86411 131.019 6.65215 131.019 8.86592C131.019 10.7817 131.508 12.3994 132.488 13.7192C133.467 14.9964 134.765 16.1671 136.383 17.2314C138.043 18.2531 139.831 19.36 141.747 20.5521C143.961 21.9144 145.919 23.2767 147.622 24.639C149.368 25.9588 150.73 27.4275 151.709 29.0453C152.731 30.663 153.242 32.6214 153.242 34.9203C153.242 37.6449 152.624 39.9012 151.39 41.6893C150.155 43.4773 148.516 44.8184 146.473 45.7124C144.429 46.6064 142.173 47.0534 139.704 47.0534C137.447 47.0534 135.659 46.798 134.34 46.2871C133.02 45.7762 131.892 45.2441 130.955 44.6906C130.018 44.0946 129.295 43.7966 128.784 43.7966C128.103 43.7966 127.634 44.7332 127.379 46.6064H125.91C125.995 45.7124 126.038 44.6694 126.038 43.4773C126.08 42.2427 126.102 40.6463 126.102 38.6879C126.144 36.7296 126.166 34.2604 126.166 31.2803H127.634C127.805 33.8347 128.273 36.2187 129.039 38.4325C129.848 40.6463 131.061 42.4343 132.679 43.7966C134.34 45.1164 136.532 45.7762 139.257 45.7762C141.343 45.7762 143.237 45.1164 144.94 43.7966C146.686 42.4343 147.558 40.2631 147.558 37.283C147.558 34.6861 146.643 32.5362 144.812 30.8333C142.982 29.1304 140.576 27.3849 137.596 25.5969C135.595 24.3623 133.722 23.1064 131.977 21.8292C130.231 20.5521 128.826 19.0833 127.762 17.423C126.74 15.7201 126.229 13.6766 126.229 11.2926C126.229 8.78078 126.783 6.71601 127.89 5.09826C129.039 3.43793 130.529 2.22461 132.36 1.45831C134.19 0.649433 136.149 0.244995 138.235 0.244995Z" fill="#151515"/>
<path d="M107.079 0.628174L122.661 40.7953C123.299 42.413 124.023 43.4986 124.832 44.0521C125.641 44.563 126.386 44.8397 127.067 44.8822V46.1594C126.216 46.0743 125.173 46.0317 123.938 46.0317C122.703 45.9891 121.469 45.9678 120.234 45.9678C118.574 45.9678 117.02 45.9891 115.572 46.0317C114.125 46.0317 112.954 46.0743 112.06 46.1594V44.8822C114.231 44.7971 115.615 44.4352 116.211 43.7966C116.807 43.1155 116.679 41.6893 115.828 39.5181L103.95 7.78035L104.972 6.95019L93.8605 35.8143C92.9665 38.1132 92.5407 39.9226 92.5833 41.2423C92.6259 42.5195 93.1155 43.4348 94.0521 43.9882C94.9887 44.5417 96.351 44.8397 98.139 44.8822V46.1594C96.947 46.0743 95.6911 46.0317 94.3713 46.0317C93.0942 45.9891 91.9021 45.9678 90.7953 45.9678C89.731 45.9678 88.8156 45.9891 88.0493 46.0317C87.3256 46.0317 86.6444 46.0743 86.0059 46.1594V44.8822C86.8573 44.6694 87.73 44.1798 88.6241 43.4135C89.5181 42.6046 90.327 41.2423 91.0507 39.3265L106.057 0.628174C106.228 0.628174 106.398 0.628174 106.568 0.628174C106.739 0.628174 106.909 0.628174 107.079 0.628174ZM114.87 27.7681V29.0453H95.8401L96.4787 27.7681H114.87Z" fill="#151515"/>
<path d="M70.9687 0.0534668C73.7785 0.0534668 76.0774 0.479192 77.8654 1.33064C79.696 2.13952 81.3138 3.0974 82.7187 4.20429C83.5701 4.84287 84.2087 4.92801 84.6344 4.45972C85.1027 3.94885 85.422 2.77811 85.5923 0.947492H87.0611C86.9759 2.52267 86.9121 4.43843 86.8695 6.69477C86.8269 8.95111 86.8056 11.9312 86.8056 15.635H85.3369C85.0389 13.8044 84.7622 12.3569 84.5067 11.2926C84.2513 10.1857 83.932 9.24912 83.5489 8.48281C83.2083 7.71651 82.74 6.95021 82.144 6.1839C80.8242 4.43843 79.1639 3.18254 77.163 2.41624C75.1621 1.60736 73.0547 1.20292 70.841 1.20292C68.7549 1.20292 66.8604 1.73508 65.1575 2.79939C63.4972 3.82113 62.0498 5.31117 60.8152 7.2695C59.6231 9.22783 58.6865 11.5906 58.0054 14.3578C57.3668 17.125 57.0475 20.2328 57.0475 23.6812C57.0475 27.2573 57.4094 30.4289 58.1331 33.1961C58.8568 35.9208 59.8573 38.2197 61.1344 40.0929C62.4542 41.9661 63.9868 43.3922 65.7323 44.3714C67.5203 45.308 69.4361 45.7763 71.4796 45.7763C73.3953 45.7763 75.3962 45.3931 77.4823 44.6268C79.5683 43.8605 81.2074 42.6259 82.3994 40.923C83.336 39.6884 83.9746 38.3474 84.3151 36.8999C84.6983 35.4525 85.0389 33.4303 85.3369 30.8334H86.8056C86.8056 34.7074 86.8269 37.8365 86.8695 40.2206C86.9121 42.5621 86.9759 44.5417 87.0611 46.1594H85.5923C85.422 44.3288 85.124 43.1794 84.6983 42.7111C84.3152 42.2428 83.6553 42.3066 82.7187 42.9026C81.1435 44.0095 79.4619 44.9887 77.6738 45.8401C75.9284 46.649 73.672 47.0535 70.9048 47.0535C66.8604 47.0535 63.3056 46.1382 60.2404 44.3075C57.2178 42.4769 54.855 39.8374 53.1521 36.3891C51.4918 32.9407 50.6616 28.7899 50.6616 23.9366C50.6616 19.1685 51.5344 14.9964 53.2798 11.4203C55.0253 7.84423 57.4094 5.05573 60.432 3.05483C63.4972 1.05392 67.0094 0.0534668 70.9687 0.0534668Z" fill="#151515"/>
<path d="M21.3566 0.628174L36.9381 40.7953C37.5767 42.413 38.3004 43.4986 39.1093 44.0521C39.9182 44.563 40.6632 44.8397 41.3443 44.8822V46.1594C40.4929 46.0743 39.4499 46.0317 38.2153 46.0317C36.9807 45.9891 35.7461 45.9678 34.5115 45.9678C32.8511 45.9678 31.2972 45.9891 29.8498 46.0317C28.4023 46.0317 27.2316 46.0743 26.3375 46.1594V44.8822C28.5087 44.7971 29.8924 44.4352 30.4884 43.7966C31.0844 43.1155 30.9567 41.6893 30.1052 39.5181L18.2275 7.78035L19.2492 6.95019L8.13782 35.8143C7.2438 38.1132 6.81808 39.9226 6.86065 41.2423C6.90322 42.5195 7.3928 43.4348 8.3294 43.9882C9.26599 44.5417 10.6283 44.8397 12.4164 44.8822V46.1594C11.2243 46.0743 9.96844 46.0317 8.64869 46.0317C7.37152 45.9891 6.17949 45.9678 5.0726 45.9678C4.00829 45.9678 3.09299 45.9891 2.32668 46.0317C1.60295 46.0317 0.92179 46.0743 0.283203 46.1594V44.8822C1.13465 44.6694 2.00739 44.1798 2.90141 43.4135C3.79543 42.6046 4.60431 41.2423 5.32804 39.3265L20.3348 0.628174C20.5051 0.628174 20.6754 0.628174 20.8457 0.628174C21.016 0.628174 21.1863 0.628174 21.3566 0.628174ZM29.1473 27.7681V29.0453H10.1174L10.756 27.7681H29.1473Z" fill="#151515"/>
</svg>
