<svg width="25" height="11" viewBox="0 0 25 11" fill="none" xmlns="http://www.w3.org/2000/svg">
<path d="M5.79004 8.42188L6.37109 10.5H8.39453L5.19531 0.546875H3.45215L0.191406 10.5H2.21484L2.80273 8.42188L5.79004 8.42188ZM3.27441 6.78809L4.32031 3.12402L5.33887 6.78809H3.27441ZM15.4287 6.13867V4.62109H11.3408V2.1123L16.0986 2.1123V0.546875L9.41309 0.546875L9.41309 10.5H16.1191V8.94824H11.3408V6.13867H15.4287ZM17.6709 10.5H20.3437C20.7858 10.5 21.2005 10.4453 21.5879 10.3359C21.9798 10.2266 22.3376 10.0693 22.6611 9.86426C22.9391 9.69108 23.1943 9.47689 23.4268 9.22168C23.6592 8.96191 23.862 8.67936 24.0352 8.37402C24.2174 8.03223 24.3587 7.65625 24.459 7.24609C24.5592 6.83594 24.6094 6.40072 24.6094 5.94043V5.12012C24.6094 4.6416 24.5547 4.19043 24.4453 3.7666C24.3405 3.34277 24.1901 2.9554 23.9941 2.60449C23.8255 2.31738 23.6273 2.05306 23.3994 1.81152C23.1761 1.56543 22.9209 1.35807 22.6338 1.18945C22.3057 0.984375 21.9411 0.827148 21.54 0.717773C21.139 0.603841 20.7083 0.546875 20.248 0.546875L17.6709 0.546875L17.6709 10.5ZM19.6055 2.10547H20.248C20.4805 2.10547 20.6947 2.13281 20.8906 2.1875C21.0911 2.23763 21.2734 2.31055 21.4375 2.40625C21.6517 2.53385 21.8385 2.69792 21.998 2.89844C22.1621 3.09896 22.2943 3.32682 22.3945 3.58203C22.4766 3.79622 22.5381 4.0332 22.5791 4.29297C22.6247 4.54818 22.6475 4.81934 22.6475 5.10645V5.94043C22.6475 6.24577 22.6247 6.5306 22.5791 6.79492C22.5381 7.05469 22.4766 7.29167 22.3945 7.50586C22.2943 7.75195 22.1735 7.96842 22.0322 8.15527C21.8955 8.33757 21.7406 8.48796 21.5674 8.60645C21.3988 8.72038 21.2119 8.80697 21.0068 8.86621C20.8018 8.92546 20.5807 8.95508 20.3437 8.95508H19.6055L19.6055 2.10547Z" fill="#666666"/>
</svg>
