<svg width="26" height="24" viewBox="0 0 26 24" fill="none" xmlns="http://www.w3.org/2000/svg">
<path d="M12.668 23.2499C11.8617 22.5349 10.9505 21.7912 9.98675 20.9999H9.97425C6.5805 18.2249 2.73425 15.0849 1.0355 11.3224C0.477394 10.1246 0.181627 8.82135 0.167983 7.49994C0.164256 5.6868 0.891461 3.94867 2.18526 2.6784C3.47905 1.40813 5.23023 0.712934 7.043 0.749941C8.51878 0.752272 9.96279 1.17879 11.203 1.97869C11.748 2.3324 12.241 2.76026 12.668 3.24994C13.0974 2.76218 13.5906 2.33458 14.1342 1.97869C15.3739 1.17863 16.8176 0.752089 18.293 0.749941C20.1058 0.712934 21.8569 1.40813 23.1507 2.6784C24.4445 3.94867 25.1717 5.6868 25.168 7.49994C25.1553 8.82346 24.8595 10.1289 24.3005 11.3287C22.6017 15.0912 18.7567 18.2299 15.363 20.9999L15.3505 21.0099C14.3855 21.7962 13.4755 22.5399 12.6692 23.2599L12.668 23.2499ZM7.043 3.24994C5.87864 3.23537 4.75559 3.68099 3.918 4.48994C3.11098 5.28265 2.65994 6.36875 2.66789 7.49994C2.68215 8.46307 2.90028 9.41225 3.308 10.2849C4.10988 11.9083 5.19188 13.3775 6.50425 14.6249C7.743 15.8749 9.168 17.0849 10.4005 18.1024C10.7417 18.3837 11.0892 18.6674 11.4367 18.9512L11.6555 19.1299C11.9892 19.4024 12.3342 19.6849 12.668 19.9624L12.6842 19.9474L12.6917 19.9412H12.6992L12.7105 19.9324H12.7167H12.723L12.7455 19.9137L12.7967 19.8724L12.8055 19.8649L12.8192 19.8549H12.8267L12.838 19.8449L13.668 19.1637L13.8855 18.9849C14.2367 18.6987 14.5842 18.4149 14.9255 18.1337C16.158 17.1162 17.5842 15.9074 18.823 14.6512C20.1355 13.4044 21.2176 11.9356 22.0192 10.3124C22.4343 9.43219 22.6556 8.47307 22.668 7.49994C22.6732 6.37224 22.2224 5.29031 21.418 4.49994C20.582 3.68734 19.4588 3.23804 18.293 3.24994C16.8704 3.23785 15.5104 3.83415 14.5555 4.88869L12.668 7.06369L10.7805 4.88869C9.82558 3.83415 8.46559 3.23785 7.043 3.24994Z" fill="#141414"/>
</svg>
