<svg width="13" height="16" viewBox="0 0 13 16" fill="none" xmlns="http://www.w3.org/2000/svg">
<path fill-rule="evenodd" clip-rule="evenodd" d="M6.4893 0.500015C8.1843 0.507515 9.8043 1.18252 10.9893 2.36751C12.1818 3.56002 12.8493 5.17251 12.8418 6.84502V6.88251C12.7968 9.15501 11.5218 11.2475 9.9318 12.8825C9.0318 13.805 8.0343 14.6225 6.9468 15.3125C6.6543 15.56 6.2268 15.56 5.9343 15.3125C4.3218 14.2625 2.8968 12.9425 1.7418 11.405C0.729297 10.07 0.151797 8.46501 0.0917969 6.79252C0.106797 3.30502 2.9718 0.492515 6.4893 0.500015ZM6.48934 8.94496C7.02184 8.94496 7.53184 8.74246 7.90684 8.37496C8.29684 7.99246 8.51509 7.48321 8.51509 6.94996C8.51509 5.83996 7.60684 4.94746 6.48934 4.94746C5.37184 4.94746 4.47184 5.83996 4.47184 6.94996C4.47184 8.04571 5.35684 8.92996 6.46684 8.94496H6.48934Z" fill="#D09125"/>
</svg>
