<svg width="16" height="14" viewBox="0 0 16 14" fill="none" xmlns="http://www.w3.org/2000/svg">
<path fill-rule="evenodd" clip-rule="evenodd" d="M11.546 0.25C12.5518 0.25 13.5193 0.6475 14.231 1.36075C14.9435 2.0725 15.3418 3.0325 15.3418 4.0375V9.9625C15.3418 12.055 13.6393 13.75 11.546 13.75H4.1368C2.04355 13.75 0.341797 12.055 0.341797 9.9625V4.0375C0.341797 1.945 2.03605 0.25 4.1368 0.25H11.546ZM12.7393 5.155L12.7993 5.095C12.9786 4.8775 12.9786 4.5625 12.7911 4.345C12.6868 4.23325 12.5436 4.165 12.3943 4.15C12.2368 4.14175 12.0868 4.195 11.9736 4.3L8.5918 7C8.1568 7.36075 7.53355 7.36075 7.0918 7L3.7168 4.3C3.48355 4.1275 3.16105 4.15 2.9668 4.3525C2.7643 4.555 2.7418 4.8775 2.91355 5.1025L3.0118 5.2L6.4243 7.8625C6.8443 8.1925 7.35355 8.3725 7.8868 8.3725C8.41855 8.3725 8.9368 8.1925 9.35605 7.8625L12.7393 5.155Z" fill="#D09125"/>
</svg>
