<svg width="22" height="23" viewBox="0 0 22 23" fill="none" xmlns="http://www.w3.org/2000/svg">
<path d="M7.38041 16.8427L7.97945 17.163C8.90781 17.6593 9.94455 17.9182 10.9972 17.9167C15.9123 17.9089 4.28155 19.4321 4.125 17.163C3.72227 11.3256 3.72021 11.9583 4.58334 11.5V11.5028C4.58176 12.5555 4.84066 13.5922 5.33699 14.5205L5.65725 15.1196L5.1648 17.3352L7.38041 16.8427ZM2.75001 19.75L3.72021 15.3849C3.08127 14.1898 2.74797 12.8552 2.75001 11.5C2.75001 6.94352 6.44353 3.25 11 3.25C15.5565 3.25 19.25 6.94352 19.25 11.5C19.25 16.0565 15.5565 19.75 11 19.75C9.64482 19.752 8.31019 19.4187 7.11508 18.7798L2.75001 19.75Z" fill="#333333"/>
<path d="M14.2069 15.1673C10.2965 15.1729 7.32883 12.1696 7.33301 8.29347C7.33301 8.04034 7.53822 7.83398 7.79135 7.83398H9.00105C9.22819 7.83398 9.42114 8.00088 9.4545 8.22555C9.53443 8.76403 9.69121 9.28826 9.92006 9.78222L9.96716 9.88388C10.0327 10.0252 9.98826 10.1932 9.86148 10.2837C9.48685 10.5513 9.34368 11.0898 9.63554 11.51C10.0018 12.0373 10.4634 12.4989 10.9906 12.8649C11.4108 13.1567 11.9492 13.0136 12.2168 12.639C12.3074 12.5121 12.4754 12.4677 12.6169 12.5333L12.718 12.5801C13.212 12.809 13.7363 12.9657 14.2748 13.0457C14.4995 13.079 14.6663 13.272 14.6663 13.4991V14.709C14.6663 14.9621 14.4606 15.1673 14.2075 15.1673L14.2069 15.1673Z" fill="#F7F7F7"/>
</svg>
